<svg xmlns="http://www.w3.org/2000/svg" version="1.1" xmlns:xlink="http://www.w3.org/1999/xlink" xmlns:svgjs="http://svgjs.dev/svgjs" width="1000" height="1000" viewBox="0 0 1000 1000"><rect width="1000" height="1000" fill="#ffffff"></rect><g transform="matrix(0.7,0,0,0.7,150.41325529745035,220.576442474106)"><svg viewBox="0 0 309 247" data-background-color="#00bfa6" preserveAspectRatio="xMidYMid meet" height="799" width="1000" xmlns="http://www.w3.org/2000/svg" xmlns:xlink="http://www.w3.org/1999/xlink"><g id="tight-bounds" transform="matrix(1,0,0,1,-0.18242269558879798,-0.09999769157136029)"><svg viewBox="0 0 309.36481700118065 247.2" height="247.2" width="309.36481700118065"><g><svg viewBox="0 0 309.36481700118065 247.2" height="247.2" width="309.36481700118065"><g><svg viewBox="0 0 309.36481700118065 247.2" height="247.2" width="309.36481700118065"><g><svg viewBox="0 0 309.36481700118065 247.2" height="247.2" width="309.36481700118065"><g><svg viewBox="0 0 309.36481700118065 247.2" height="247.2" width="309.36481700118065"><g transform="matrix(1,0,0,1,0,0)"><svg width="309.36481700118065" viewBox="1.949997901916504 -38.849998474121094 105.99999237060547 81.70000457763672" height="247.2" data-palette-color="#ffffff"><svg></svg><svg></svg><g class="undefined-text-0" data-fill-palette-color="primary" id="text-0"><path xmlns="http://www.w3.org/2000/svg" d="M4.45 0v-37.85c0.3 0.467 0.927 1.357 1.88 2.67 0.947 1.32 2.047 2.847 3.3 4.58 1.247 1.733 2.57 3.573 3.97 5.52 1.4 1.953 2.717 3.787 3.95 5.5 1.233 1.72 2.31 3.213 3.23 4.48 0.913 1.267 1.52 2.1 1.82 2.5v0c0.1-0.167 0.417-0.617 0.95-1.35 0.533-0.733 1.193-1.65 1.98-2.75 0.78-1.1 1.67-2.343 2.67-3.73 1-1.38 2.027-2.797 3.08-4.25 1.047-1.447 2.08-2.887 3.1-4.32 1.013-1.433 1.953-2.743 2.82-3.93 0.867-1.18 1.61-2.21 2.23-3.09 0.613-0.887 1.053-1.497 1.32-1.83v0 37.85h-5.8v-20.3c0-0.267 0.023-0.55 0.07-0.85 0.053-0.3 0.08-0.517 0.08-0.65v0c-0.3 0.4-0.773 1.073-1.42 2.02-0.653 0.953-1.403 2.037-2.25 3.25-0.853 1.22-1.747 2.503-2.68 3.85-0.933 1.353-1.817 2.63-2.65 3.83-0.833 1.2-1.567 2.257-2.2 3.17-0.633 0.92-1.067 1.563-1.3 1.93v0c-0.233-0.3-0.69-0.927-1.37-1.88-0.687-0.947-1.49-2.053-2.41-3.32-0.913-1.267-1.877-2.617-2.89-4.05-1.02-1.433-1.963-2.767-2.83-4-0.867-1.233-1.617-2.293-2.25-3.18-0.633-0.88-1-1.42-1.1-1.62v0c0 0.133 0.027 0.35 0.08 0.65 0.047 0.3 0.07 0.583 0.07 0.85v0 20.3zM61.7-5.55l3.2 3.1c-1 0.9-2.217 1.617-3.65 2.15-1.433 0.533-2.9 0.8-4.4 0.8v0c-1.533 0-2.973-0.293-4.32-0.88-1.353-0.58-2.53-1.363-3.53-2.35-1-0.98-1.79-2.137-2.37-3.47-0.587-1.333-0.88-2.75-0.88-4.25v0c0-1.5 0.293-2.917 0.88-4.25 0.58-1.333 1.37-2.5 2.37-3.5 1-1 2.16-1.793 3.48-2.38 1.313-0.58 2.72-0.87 4.22-0.87v0c2.367 0 4.427 0.707 6.18 2.12 1.747 1.42 3.003 3.28 3.77 5.58v0c-1.033 0.367-2.217 0.817-3.55 1.35-1.333 0.533-2.717 1.09-4.15 1.67-1.433 0.587-2.867 1.163-4.3 1.73-1.433 0.567-2.767 1.083-4 1.55v0c0.567 1.133 1.393 2.04 2.48 2.72 1.08 0.687 2.287 1.03 3.62 1.03v0c0.9 0 1.81-0.167 2.73-0.5 0.913-0.333 1.653-0.783 2.22-1.35zM61.3-14.75v0c-0.4-0.833-1.033-1.46-1.9-1.88-0.867-0.413-1.75-0.62-2.65-0.62v0c-0.967 0-1.857 0.183-2.67 0.55-0.82 0.367-1.53 0.857-2.13 1.47-0.6 0.62-1.073 1.33-1.42 2.13-0.353 0.8-0.53 1.617-0.53 2.45v0c0 0.167 0.01 0.283 0.03 0.35 0.013 0.067 0.02 0.117 0.02 0.15v0c0.867-0.333 1.81-0.71 2.83-1.13 1.013-0.413 2.02-0.83 3.02-1.25 1-0.413 1.967-0.813 2.9-1.2 0.933-0.38 1.767-0.72 2.5-1.02zM68.95-10.45v0c0-1.633 0.277-3.127 0.83-4.48 0.547-1.347 1.303-2.503 2.27-3.47 0.967-0.967 2.11-1.717 3.43-2.25 1.313-0.533 2.737-0.8 4.27-0.8v0c1.033 0 1.96 0.123 2.78 0.37 0.813 0.253 1.513 0.553 2.1 0.9 0.58 0.353 1.07 0.747 1.47 1.18 0.4 0.433 0.7 0.817 0.9 1.15v0-21h4.3v38.85h-4.3v-1.55c0-0.2 0.017-0.427 0.05-0.68 0.033-0.247 0.05-0.453 0.05-0.62v0c-0.333 0.4-0.723 0.79-1.17 1.17-0.453 0.387-0.98 0.747-1.58 1.08-0.6 0.333-1.29 0.6-2.07 0.8-0.787 0.2-1.68 0.3-2.68 0.3v0c-1.667 0-3.157-0.293-4.47-0.88-1.32-0.58-2.437-1.363-3.35-2.35-0.92-0.98-1.62-2.137-2.1-3.47-0.487-1.333-0.73-2.75-0.73-4.25zM73.25-10.5v0c0 0.967 0.177 1.867 0.53 2.7 0.347 0.833 0.82 1.55 1.42 2.15 0.6 0.6 1.317 1.073 2.15 1.42 0.833 0.353 1.75 0.53 2.75 0.53v0c1 0 1.927-0.177 2.78-0.53 0.847-0.347 1.58-0.83 2.2-1.45 0.613-0.613 1.087-1.33 1.42-2.15 0.333-0.813 0.5-1.703 0.5-2.67v0c0-0.967-0.167-1.86-0.5-2.68-0.333-0.813-0.807-1.52-1.42-2.12-0.62-0.6-1.353-1.077-2.2-1.43-0.853-0.347-1.78-0.52-2.78-0.52v0c-1 0-1.917 0.173-2.75 0.52-0.833 0.353-1.55 0.83-2.15 1.43-0.6 0.6-1.073 1.307-1.42 2.12-0.353 0.82-0.53 1.713-0.53 2.68zM96.75-28.9v0c0-0.8 0.293-1.467 0.88-2 0.58-0.533 1.203-0.8 1.87-0.8v0c0.667 0 1.283 0.267 1.85 0.8 0.567 0.533 0.85 1.2 0.85 2v0c0 0.8-0.283 1.457-0.85 1.97-0.567 0.52-1.183 0.78-1.85 0.78v0c-0.667 0-1.29-0.26-1.87-0.78-0.587-0.513-0.88-1.17-0.88-1.97zM101.55-20.9v20.9h-4.25v-20.9z" fill="#000000" fill-rule="nonzero" stroke="none" stroke-width="1" stroke-linecap="butt" stroke-linejoin="miter" stroke-miterlimit="10" stroke-dasharray="" stroke-dashoffset="0" font-family="none" font-weight="none" font-size="none" text-anchor="none" style="mix-blend-mode: normal" data-fill-palette-color="primary" opacity="1"></path><path xmlns="http://www.w3.org/2000/svg" d="M29.05 34.8l2.3 4.95c-0.4 0.3-0.957 0.623-1.67 0.97-0.72 0.353-1.563 0.68-2.53 0.98-0.967 0.3-2.04 0.55-3.22 0.75-1.187 0.2-2.447 0.3-3.78 0.3v0c-2.833 0-5.373-0.49-7.62-1.47-2.253-0.987-4.163-2.313-5.73-3.98-1.567-1.667-2.767-3.6-3.6-5.8-0.833-2.2-1.25-4.533-1.25-7v0c0-2.733 0.493-5.25 1.48-7.55 0.98-2.3 2.32-4.283 4.02-5.95 1.7-1.667 3.693-2.967 5.98-3.9 2.28-0.933 4.703-1.4 7.27-1.4v0c0.967 0 1.95 0.067 2.95 0.2 1 0.133 1.943 0.317 2.83 0.55 0.88 0.233 1.663 0.507 2.35 0.82 0.68 0.32 1.203 0.647 1.57 0.98v0c-0.267 0.4-0.473 0.733-0.62 1-0.153 0.267-0.313 0.543-0.48 0.83-0.167 0.28-0.35 0.603-0.55 0.97-0.2 0.367-0.467 0.85-0.8 1.45v0c-0.433-0.3-0.94-0.55-1.52-0.75-0.587-0.2-1.197-0.367-1.83-0.5-0.633-0.133-1.273-0.233-1.92-0.3-0.653-0.067-1.247-0.1-1.78-0.1v0c-1.933 0-3.723 0.357-5.37 1.07-1.653 0.72-3.08 1.687-4.28 2.9-1.2 1.22-2.14 2.63-2.82 4.23-0.687 1.6-1.03 3.267-1.03 5v0c0 1.7 0.327 3.333 0.98 4.9 0.647 1.567 1.547 2.967 2.7 4.2 1.147 1.233 2.53 2.217 4.15 2.95 1.613 0.733 3.387 1.1 5.32 1.1v0c1.033 0 2.033-0.1 3-0.3 0.967-0.2 1.843-0.433 2.63-0.7 0.78-0.267 1.43-0.533 1.95-0.8 0.513-0.267 0.82-0.467 0.92-0.6zM39.2 3.5v38.85h-4.25v-38.85zM44.7 13.45v0c0-0.8 0.293-1.467 0.88-2 0.58-0.533 1.203-0.8 1.87-0.8v0c0.667 0 1.283 0.267 1.85 0.8 0.567 0.533 0.85 1.2 0.85 2v0c0 0.8-0.283 1.457-0.85 1.97-0.567 0.52-1.183 0.78-1.85 0.78v0c-0.667 0-1.29-0.26-1.87-0.78-0.587-0.513-0.88-1.17-0.88-1.97zM49.5 21.45v20.9h-4.25v-20.9zM55.5 42.35v-20.9h3.75c0.067 1.033 0.123 1.977 0.17 2.83 0.053 0.847 0.113 1.687 0.18 2.52v0c0.767-1.8 1.86-3.233 3.28-4.3 1.413-1.067 3.153-1.6 5.22-1.6v0c2.1 0 3.783 0.583 5.05 1.75 1.267 1.167 1.933 2.667 2 4.5v0 15.2h-4.3v-13.25c-0.067-1.067-0.433-1.977-1.1-2.73-0.667-0.747-1.717-1.153-3.15-1.22v0c-1 0-1.917 0.173-2.75 0.52-0.833 0.353-1.55 0.83-2.15 1.43-0.6 0.6-1.077 1.317-1.43 2.15-0.347 0.833-0.52 1.75-0.52 2.75v0 10.35zM80.4 13.45v0c0-0.8 0.293-1.467 0.88-2 0.58-0.533 1.203-0.8 1.87-0.8v0c0.667 0 1.283 0.267 1.85 0.8 0.567 0.533 0.85 1.2 0.85 2v0c0 0.8-0.283 1.457-0.85 1.97-0.567 0.52-1.183 0.78-1.85 0.78v0c-0.667 0-1.29-0.26-1.87-0.78-0.587-0.513-0.88-1.17-0.88-1.97zM85.2 21.45v20.9h-4.25v-20.9zM105.2 37.2v0c0.467 0.567 0.91 1.107 1.33 1.62 0.413 0.52 0.837 1.063 1.27 1.63v0c-0.933 0.733-1.983 1.317-3.15 1.75-1.167 0.433-2.433 0.65-3.8 0.65v0c-1.533 0-2.973-0.293-4.32-0.88-1.353-0.58-2.53-1.37-3.53-2.37-1-1-1.79-2.167-2.37-3.5-0.587-1.333-0.88-2.75-0.88-4.25v0c0-1.5 0.293-2.917 0.88-4.25 0.58-1.333 1.37-2.493 2.37-3.48 1-0.98 2.177-1.763 3.53-2.35 1.347-0.58 2.787-0.87 4.32-0.87v0c1.4 0 2.693 0.217 3.88 0.65 1.18 0.433 2.253 1.017 3.22 1.75v0l-2.75 3.25c-0.567-0.467-1.217-0.827-1.95-1.08-0.733-0.247-1.533-0.37-2.4-0.37v0c-1 0-1.917 0.173-2.75 0.52-0.833 0.353-1.56 0.83-2.18 1.43-0.613 0.6-1.087 1.307-1.42 2.12-0.333 0.82-0.5 1.713-0.5 2.68v0c0 0.967 0.167 1.857 0.5 2.67 0.333 0.82 0.807 1.537 1.42 2.15 0.62 0.62 1.347 1.103 2.18 1.45 0.833 0.353 1.75 0.53 2.75 0.53v0c0.867 0 1.667-0.127 2.4-0.38 0.733-0.247 1.383-0.603 1.95-1.07z" fill="#000000" fill-rule="nonzero" stroke="none" stroke-width="1" stroke-linecap="butt" stroke-linejoin="miter" stroke-miterlimit="10" stroke-dasharray="" stroke-dashoffset="0" font-family="none" font-weight="none" font-size="none" text-anchor="none" style="mix-blend-mode: normal" data-fill-palette-color="primary" opacity="1"></path></g></svg></g></svg></g></svg></g></svg></g></svg></g><defs></defs></svg><rect width="309.36481700118065" height="247.2" fill="none" stroke="none" visibility="hidden"></rect></g></svg></g></svg>